<?xml version="1.0" encoding="UTF-8"?>
<svg id="Layer_1" data-name="Layer 1" xmlns="http://www.w3.org/2000/svg" xmlns:xlink="http://www.w3.org/1999/xlink" viewBox="0 0 760.477 39.6978">
  <g id="type">
    <path id="type__CompoundPathItem_" data-name="type &amp;lt;CompoundPathItem&amp;gt;" d="M94.1828,38.4833L62.0036,5.782c-.0126-.0126-.0296-.0255-.0466-.0381l-.0044-.0085C58.1909,2.0033,53.1426,.0035,47.3684,.0035h-.3524C41.1865,.0035,36.083,2.0203,32.338,5.8289L.1929,38.4833c-.2079,.2123-.2504,.4926-.1146,.7474,.1401,.2504,.4204,.4032,.743,.4032l.5436,.0639H12.0881c.7399,0,1.4488-.297,1.9678-.8243L39.9339,12.5797c1.864-1.8936,4.1778-2.8149,7.0821-2.8149h.3524c2.8956,0,5.2053,.9255,7.0649,2.8149l25.8867,26.2941c.519,.5271,1.2278,.824,1.9675,.824h10.7235l.5434-.0639c.3269,0,.6072-.1528,.7472-.4032,.136-.2548,.0935-.5351-.1188-.7474Z" style="fill: #fff;"/>
    <path id="type__CompoundPathItem_-2" data-name="type &amp;lt;CompoundPathItem&amp;gt;" d="M327.5012,38.4833L295.322,5.782c-.0126-.0126-.0296-.0255-.0466-.0381l-.0044-.0085C291.5093,2.0033,286.461,.0035,280.6868,.0035h-.3524c-5.8295,0-10.933,2.0168-14.6779,5.8254l-32.1451,32.6545c-.2079,.2123-.2504,.4926-.1146,.7474,.1401,.2504,.4204,.4032,.743,.4032l.5436,.0639h10.7232c.7399,0,1.4488-.297,1.9678-.8243l25.8779-26.2938c1.864-1.8936,4.1778-2.8149,7.0821-2.8149h.3524c2.8956,0,5.2053,.9255,7.0649,2.8149l25.8867,26.2941c.519,.5271,1.2278,.824,1.9675,.824h10.7235l.5434-.0639c.3269,0,.6072-.1528,.7472-.4032,.136-.2548,.0935-.5351-.1188-.7474Z" style="fill: #fff;"/>
    <path id="type__CompoundPathItem_-3" data-name="type &amp;lt;CompoundPathItem&amp;gt;" d="M352.0436,.0028h8.5159c.4525,0,.8215,.3136,.8215,.6996V25.8627c0,1.9382,1.8844,3.5472,4.1575,3.5472h58.0221c.451,0,.82,.3116,.82,.6977v8.8264c0,.3841-.369,.6996-.82,.6996h-58.2336c-7.7562,0-14.1049-5.411-14.1049-12.0253V.7025c0-.3861,.369-.6996,.8215-.6996Z" style="fill: #fff;"/>
    <path id="type__CompoundPathItem_-4" data-name="type &amp;lt;CompoundPathItem&amp;gt;" d="M461.2919,13.0972c1.7305-1.7302,4.117-2.8049,6.7634-2.8049h58.2925c.4524,0,.8143-.317,.8143-.7014V.7014c0-.396-.3619-.7014-.8143-.7014h-56.4941c-12.8031,0-21.953,8.9012-21.953,19.8154,0,10.9031,9.1499,19.8154,21.953,19.8154h56.4941c.4524,0,.8143-.3164,.8143-.6898V21.1728c0-.396-.3619-.7014-.8143-.7014h-8.1319c-.7803,0-1.4251,.407-1.4251,.9162v8.0524h-48.7355c-4.5467,0-8.3467-3.1666-9.3195-7.419-.034-.1359-.2714-1.6855-.2714-2.2057,0-3.5013,1.7192-5.6098,2.8275-6.7182Z" style="fill: #fff;"/>
    <a xlink:href="95.2941176470588">
      <path id="type__PathItem_" data-name="type &amp;lt;PathItem&amp;gt;" d="M209.7945,.704V39.0014c0,.3821-.3692,.6964-.8193,.6964h-8.6249c-.4542,0-.8237-.3143-.8237-.6964V12.5627l-20.9107,21.2461c-3.7491,3.8042-8.8524,5.8252-14.6777,5.8252h-.3524c-5.7785,0-10.8268-1.9998-14.5844-5.736l-.0085-.0041c-.017-.0129-.0296-.0299-.0466-.0425l-20.9022-21.2376v26.3877c0,.3821-.3694,.6964-.8195,.6964h-8.5013c-.4501,0-.8195-.3143-.8195-.6964V.704c0-.1061,.0296-.2038,.0765-.2886,.0041-.0044,0-.0085,.0041-.0085,.0044-.0085,.0129-.0129,.017-.017,.0595-.0976,.1443-.1741,.2419-.2378,.0299-.0214,.0595-.0384,.0935-.0551,.1146-.0554,.2463-.0935,.3864-.0935h9.9662c.7389,0,1.4479,.2973,1.9658,.8237l25.8869,26.2945c1.8596,1.8895,4.1693,2.8149,7.0651,2.8149h.3522c2.9043,0,5.2181-.9213,7.0821-2.8149L196.9198,.8272c.5179-.5264,1.2269-.8237,1.9658-.8237h10.0896c.4501,0,.8193,.3143,.8193,.7005Z" style="fill: #fff;"/>
    </a>
    <path id="type__CompoundPathItem_-5" data-name="type &amp;lt;CompoundPathItem&amp;gt;" d="M644.8652,38.4833l-32.1791-32.7013c-.0126-.0126-.0296-.0255-.0466-.0381l-.0044-.0085C608.8734,2.0033,603.8251,.0035,598.0509,.0035h-.3524c-5.8295,0-10.933,2.0168-14.6779,5.8254l-32.1451,32.6545c-.2079,.2123-.2504,.4926-.1146,.7474,.1401,.2504,.4204,.4032,.743,.4032l.5436,.0639h10.7232c.7399,0,1.4488-.297,1.9678-.8243l25.8779-26.2938c1.864-1.8936,4.1778-2.8149,7.0821-2.8149h.3524c2.8956,0,5.2053,.9255,7.0649,2.8149l25.8867,26.2941c.519,.5271,1.2278,.824,1.9675,.824h10.7235l.5434-.0639c.3269,0,.6072-.1528,.7472-.4032,.136-.2548,.0935-.5351-.1188-.7474Z" style="fill: #fff;"/>
    <a xlink:href="95.2941176470588">
      <path id="type__PathItem_-2" data-name="type &amp;lt;PathItem&amp;gt;" d="M760.477,.704V39.0014c0,.3821-.3692,.6964-.8193,.6964h-8.6249c-.4542,0-.8237-.3143-.8237-.6964V12.5627l-20.9107,21.2461c-3.7491,3.8042-8.8524,5.8252-14.6777,5.8252h-.3524c-5.7785,0-10.8268-1.9998-14.5844-5.736l-.0085-.0041c-.017-.0129-.0296-.0299-.0466-.0425l-20.9022-21.2376v26.3877c0,.3821-.3694,.6964-.8195,.6964h-8.5013c-.4501,0-.8195-.3143-.8195-.6964V.704c0-.1061,.0296-.2038,.0765-.2886,.0041-.0044,0-.0085,.0041-.0085,.0044-.0085,.0129-.0129,.017-.017,.0595-.0976,.1443-.1741,.2419-.2378,.0299-.0214,.0595-.0384,.0935-.0551,.1146-.0554,.2463-.0935,.3864-.0935h9.9662c.7389,0,1.4479,.2973,1.9658,.8237l25.8869,26.2945c1.8596,1.8895,4.1693,2.8149,7.0651,2.8149h.3522c2.9043,0,5.2181-.9213,7.0821-2.8149L747.6023,.8272c.5179-.5264,1.2269-.8237,1.9658-.8237h10.0896c.4501,0,.8193,.3143,.8193,.7005Z" style="fill: #fff;"/>
    </a>
  </g>
</svg>